name ./resultDataOpenSim/trcMotMarkerGrf/sub09/grf-04-01.mot
datacolumns 19
datarows 15
range 0.50400000 0.56000000
endheader

                time	     ground_force_vx	     ground_force_vy	     ground_force_vz	     ground_force_px	     ground_force_py	     ground_force_pz	   l_ground_force_vx	   l_ground_force_vy	   l_ground_force_vz	   l_ground_force_px	   l_ground_force_py	   l_ground_force_pz	     ground_torque_x	     ground_torque_y	     ground_torque_z	   l_ground_torque_x	   l_ground_torque_y	   l_ground_torque_z	
          0.50400000	         34.10883572	        461.39807777	        -11.10713537	         -0.67350489	          0.00000000	          0.12787006	          0.00000000	          0.00000000	          0.00000000	          0.00000000	          0.00000000	          0.00000000	          0.00000000	          4.57717871	          0.00000000	          0.00000000	          0.00000000	          0.00000000	
          0.50800000	         37.05086514	        467.20031168	        -11.76087634	         -0.67200834	          0.00000000	          0.12851120	          0.00000000	          0.00000000	          0.00000000	          0.00000000	          0.00000000	          0.00000000	          0.00000000	          4.70788820	          0.00000000	          0.00000000	          0.00000000	          0.00000000	
          0.51200000	         40.24439887	        472.77466951	        -13.00720753	         -0.67028498	          0.00000000	          0.12926027	          0.00000000	          0.00000000	          0.00000000	          0.00000000	          0.00000000	          0.00000000	          0.00000000	          4.74938722	          0.00000000	          0.00000000	          0.00000000	          0.00000000	
          0.51600000	         43.57075664	        478.19162169	        -14.75436309	         -0.66829987	          0.00000000	          0.13011064	          0.00000000	          0.00000000	          0.00000000	          0.00000000	          0.00000000	          0.00000000	          0.00000000	          4.71612192	          0.00000000	          0.00000000	          0.00000000	          0.00000000	
          0.52000000	         46.87890398	        483.57972127	        -16.84206492	         -0.66603994	          0.00000000	          0.13103780	          0.00000000	          0.00000000	          0.00000000	          0.00000000	          0.00000000	          0.00000000	          0.00000000	          4.63325547	          0.00000000	          0.00000000	          0.00000000	          0.00000000	
          0.52400000	         50.02358580	        489.12443937	        -19.07578877	         -0.66352236	          0.00000000	          0.13200742	          0.00000000	          0.00000000	          0.00000000	          0.00000000	          0.00000000	          0.00000000	          0.00000000	          4.53059578	          0.00000000	          0.00000000	          0.00000000	          0.00000000	
          0.52800000	         52.90302054	        495.04417971	        -21.26532014	         -0.66079809	          0.00000000	          0.13297150	          0.00000000	          0.00000000	          0.00000000	          0.00000000	          0.00000000	          0.00000000	          0.00000000	          4.43602780	          0.00000000	          0.00000000	          0.00000000	          0.00000000	
          0.53200000	         55.48541544	        501.54970786	        -23.25806612	         -0.65793566	          0.00000000	          0.13388319	          0.00000000	          0.00000000	          0.00000000	          0.00000000	          0.00000000	          0.00000000	          0.00000000	          4.36957490	          0.00000000	          0.00000000	          0.00000000	          0.00000000	
          0.53600000	         57.81985281	        508.81382704	        -24.96039672	         -0.65500834	          0.00000000	          0.13471101	          0.00000000	          0.00000000	          0.00000000	          0.00000000	          0.00000000	          0.00000000	          0.00000000	          4.33922467	          0.00000000	          0.00000000	          0.00000000	          0.00000000	
          0.54000000	         60.03068291	        516.95994672	        -26.34450419	         -0.65208498	          0.00000000	          0.13543462	          0.00000000	          0.00000000	          0.00000000	          0.00000000	          0.00000000	          0.00000000	          0.00000000	          4.33951469	          0.00000000	          0.00000000	          0.00000000	          0.00000000	
          0.54400000	         62.29866877	        526.06180145	        -27.44223906	         -0.64923475	          0.00000000	          0.13604205	          0.00000000	          0.00000000	          0.00000000	          0.00000000	          0.00000000	          0.00000000	          0.00000000	          4.35337502	          0.00000000	          0.00000000	          0.00000000	          0.00000000	
          0.54800000	         64.83262711	        536.14844638	        -28.32921789	         -0.64653274	          0.00000000	          0.13652472	          0.00000000	          0.00000000	          0.00000000	          0.00000000	          0.00000000	          0.00000000	          0.00000000	          4.35690453	          0.00000000	          0.00000000	          0.00000000	          0.00000000	
          0.55200000	         67.83331989	        547.20518233	        -29.10289220	         -0.64405297	          0.00000000	          0.13687844	          0.00000000	          0.00000000	          0.00000000	          0.00000000	          0.00000000	          0.00000000	          0.00000000	          4.32592136	          0.00000000	          0.00000000	          0.00000000	          0.00000000	
          0.55600000	         71.45530691	        559.16427888	        -29.85631964	         -0.64185466	          0.00000000	          0.13710702	          0.00000000	          0.00000000	          0.00000000	          0.00000000	          0.00000000	          0.00000000	          0.00000000	          4.24263640	          0.00000000	          0.00000000	          0.00000000	          0.00000000	
          0.56000000	         75.77672173	        571.89460359	        -30.64963708	         -0.63996490	          0.00000000	          0.13721959	          0.00000000	          0.00000000	          0.00000000	          0.00000000	          0.00000000	          0.00000000	          0.00000000	          4.10083412	          0.00000000	          0.00000000	          0.00000000	          0.00000000	
